<svg width="18" height="19" viewBox="0 0 18 19" fill="none" xmlns="http://www.w3.org/2000/svg">
<path fill-rule="evenodd" clip-rule="evenodd" d="M17.64 9.81356C17.64 9.17538 17.5827 8.56175 17.4764 7.97266H9V11.454H13.8436C13.635 12.579 13.0009 13.5322 12.0477 14.1704V16.4286H14.9564C16.6582 14.8617 17.64 12.5545 17.64 9.81356Z" fill="#4285F4"/>
<path fill-rule="evenodd" clip-rule="evenodd" d="M9 18.609C11.43 18.609 13.4673 17.8031 14.9564 16.4285L12.0477 14.1703C11.2418 14.7103 10.2109 15.0294 9 15.0294C6.65591 15.0294 4.67182 13.4462 3.96409 11.319H0.957275V13.6508C2.43818 16.5922 5.48182 18.609 9 18.609Z" fill="#34A853"/>
<path fill-rule="evenodd" clip-rule="evenodd" d="M3.96409 11.319C3.78409 10.779 3.68182 10.2021 3.68182 9.60896C3.68182 9.01577 3.78409 8.43896 3.96409 7.89896V5.56714H0.957273C0.347727 6.78214 0 8.15668 0 9.60896C0 11.0612 0.347727 12.4358 0.957273 13.6508L3.96409 11.319Z" fill="#FBBC05"/>
<path fill-rule="evenodd" clip-rule="evenodd" d="M9 4.18855C10.3214 4.18855 11.5077 4.64265 12.4405 5.53446L15.0218 2.9531C13.4632 1.50083 11.4259 0.609009 9 0.609009C5.48182 0.609009 2.43818 2.62583 0.957275 5.56719L3.96409 7.89901C4.67182 5.77174 6.65591 4.18855 9 4.18855Z" fill="#EA4335"/>
</svg>
