<svg width="33" height="34" viewBox="0 0 33 34" fill="none" xmlns="http://www.w3.org/2000/svg">
<rect y="0.520996" width="33" height="33" rx="16.5" fill="#5865F2"/>
<path d="M22.5167 11.6124C24.4611 14.4916 25.4214 17.7392 25.0625 21.478C25.0609 21.4938 25.0528 21.5084 25.0399 21.5179C23.5673 22.6068 22.1407 23.2677 20.734 23.7059C20.7231 23.7093 20.7113 23.7091 20.7005 23.7054C20.6896 23.7017 20.6802 23.6947 20.6735 23.6853C20.3486 23.2299 20.0533 22.7499 19.7946 22.2457C19.7797 22.216 19.7933 22.1803 19.8239 22.1686C20.2928 21.9906 20.7387 21.7773 21.1677 21.5248C21.2015 21.5049 21.2036 21.4561 21.1724 21.4327C21.0814 21.3647 20.9912 21.2931 20.9049 21.2216C20.8888 21.2084 20.867 21.2058 20.8487 21.2147C18.064 22.5097 15.0135 22.5097 12.1959 21.2147C12.1776 21.2064 12.1559 21.2093 12.1402 21.2223C12.0541 21.2938 11.9637 21.3647 11.8735 21.4327C11.8423 21.4561 11.8449 21.5049 11.8789 21.5248C12.3078 21.7726 12.7538 21.9906 13.2221 22.1694C13.2524 22.1811 13.2668 22.216 13.2518 22.2457C12.9987 22.7505 12.7034 23.2306 12.3724 23.686C12.358 23.7044 12.3343 23.7128 12.3119 23.7059C10.9119 23.2677 9.48526 22.6068 8.01274 21.5179C8.00048 21.5084 7.99165 21.4932 7.99036 21.4774C7.69035 18.2434 8.30178 14.9689 10.5338 11.6118C10.5392 11.6029 10.5474 11.5959 10.5568 11.5918C11.6551 11.0842 12.8317 10.7108 14.0614 10.4975C14.0838 10.494 14.1062 10.5044 14.1178 10.5244C14.2698 10.7953 14.4434 11.1427 14.5609 11.4267C15.8572 11.2273 17.1737 11.2273 18.497 11.4267C18.6146 11.1488 18.7822 10.7953 18.9335 10.5244C18.9389 10.5145 18.9472 10.5066 18.9574 10.5017C18.9675 10.4969 18.9789 10.4954 18.9899 10.4975C20.2203 10.7114 21.3969 11.0849 22.4943 11.5918C22.504 11.5959 22.5119 11.6029 22.5167 11.6124ZM15.2199 17.7614C15.2335 16.8053 14.5414 16.0142 13.6725 16.0142C12.8108 16.0142 12.1253 16.7984 12.1253 17.7614C12.1253 18.7241 12.8244 19.5083 13.6725 19.5083C14.5345 19.5083 15.2199 18.7241 15.2199 17.7614ZM20.9408 17.7614C20.9544 16.8053 20.2623 16.0142 19.3936 16.0142C18.5317 16.0142 17.8462 16.7984 17.8462 17.7614C17.8462 18.7241 18.5453 19.5083 19.3936 19.5083C20.2623 19.5083 20.9408 18.7241 20.9408 17.7614Z" fill="white"/>
</svg>
