<svg width="34" height="34" viewBox="0 0 34 34" fill="none" xmlns="http://www.w3.org/2000/svg">
<rect x="0.955688" y="0.546875" width="33" height="33" rx="16.5" fill="#1B1F23"/>
<path fill-rule="evenodd" clip-rule="evenodd" d="M17.439 8.11523C12.3145 8.11523 8.16394 12.2493 8.16394 17.3534C8.16394 21.4414 10.8189 24.8941 14.5058 26.1182C14.9695 26.199 15.1435 25.9219 15.1435 25.6794C15.1435 25.46 15.1319 24.7325 15.1319 23.9588C12.8015 24.386 12.1986 23.3929 12.0131 22.8733C11.9088 22.6077 11.4566 21.7878 11.0624 21.5684C10.7378 21.3952 10.274 20.9679 11.0508 20.9563C11.7812 20.9448 12.303 21.6261 12.4769 21.9033C13.3116 23.3005 14.6449 22.9079 15.1782 22.6654C15.2594 22.0649 15.5029 21.6608 15.7695 21.4298C13.7058 21.1989 11.5494 20.4021 11.5494 16.8684C11.5494 15.8638 11.9088 15.0323 12.5001 14.3857C12.4073 14.1547 12.0827 13.2078 12.5928 11.9375C12.5928 11.9375 13.3696 11.695 15.1435 12.8845C15.8855 12.6766 16.6738 12.5727 17.4622 12.5727C18.2506 12.5727 19.039 12.6766 19.781 12.8845C21.5549 11.6835 22.3317 11.9375 22.3317 11.9375C22.8418 13.2078 22.5172 14.1547 22.4244 14.3857C23.0157 15.0323 23.3751 15.8522 23.3751 16.8684C23.3751 20.4136 21.2071 21.1989 19.1433 21.4298C19.4796 21.7185 19.7694 22.2728 19.7694 23.1389C19.7694 24.3745 19.7578 25.3676 19.7578 25.6794C19.7578 25.9219 19.9317 26.2106 20.3955 26.1182C24.0591 24.8941 26.7141 21.4298 26.7141 17.3534C26.7141 12.2493 22.5635 8.11523 17.439 8.11523Z" fill="white"/>
</svg>
