<svg width="33" height="34" viewBox="0 0 33 34" fill="none" xmlns="http://www.w3.org/2000/svg">
<rect y="0.520996" width="33" height="33" rx="16.5" fill="#006699"/>
<path d="M12.704 23.708V14.7938H9.74371V23.708H12.7043H12.704ZM11.2245 13.5769C12.2566 13.5769 12.8992 12.8924 12.8992 12.0369C12.8798 11.162 12.2566 10.4966 11.2441 10.4966C10.2309 10.4966 9.56921 11.162 9.56921 12.0368C9.56921 12.8923 10.2115 13.5768 11.2051 13.5768H11.2243L11.2245 13.5769ZM14.3426 23.708H17.3027V18.7304C17.3027 18.4644 17.322 18.1976 17.4002 18.0075C17.6141 17.475 18.1012 16.9238 18.9192 16.9238C19.9901 16.9238 20.4188 17.7412 20.4188 18.9396V23.708H23.3788V18.5968C23.3788 15.8589 21.9185 14.5848 19.9709 14.5848C18.3742 14.5848 17.6729 15.478 17.2832 16.0864H17.3029V14.7941H14.3428C14.3814 15.6303 14.3425 23.7083 14.3425 23.7083L14.3426 23.708Z" fill="white"/>
</svg>
