<svg width="33" height="33" viewBox="0 0 33 33" fill="none" xmlns="http://www.w3.org/2000/svg">
<rect width="33" height="33" rx="16.5" fill="#FF0000"/>
<path d="M25.6784 11.961C25.4629 11.151 24.8256 10.512 24.0146 10.293C22.5484 9.90002 16.6654 9.90002 16.6654 9.90002C16.6654 9.90002 10.7854 9.90002 9.31613 10.293C8.50819 10.509 7.87082 11.148 7.65238 11.961C7.26038 13.431 7.26038 16.5 7.26038 16.5C7.26038 16.5 7.26038 19.569 7.65238 21.039C7.86783 21.849 8.5052 22.488 9.31613 22.707C10.7854 23.1 16.6654 23.1 16.6654 23.1C16.6654 23.1 22.5484 23.1 24.0146 22.707C24.8226 22.491 25.4599 21.852 25.6784 21.039C26.0704 19.569 26.0704 16.5 26.0704 16.5C26.0704 16.5 26.0704 13.431 25.6784 11.961Z" fill="white"/>
<path d="M14.7862 19.329L19.6727 16.5L14.7862 13.671V19.329Z" fill="#FF0000"/>
</svg>
